<svg width="34" height="34" viewBox="0 0 34 34" fill="none" xmlns="http://www.w3.org/2000/svg">
<circle cx="17" cy="17" r="16.5" fill="white" stroke="#F0F0F0"/>
<rect x="9" y="11" width="16" height="2" rx="1" fill="black"/>
<rect x="9" y="22" width="16" height="2" rx="1" fill="black"/>
<path d="M16.1105 17.8986C16.438 17.3109 17.5622 17.3109 17.8896 17.8986C18.9198 19.7475 20.5851 22 22.0001 22C25.9053 22 8.09481 22 12.0001 22C13.4151 22 15.0803 19.7475 16.1105 17.8986Z" fill="black"/>
<path d="M16.0085 16.2672C16.417 16.8627 17.5831 16.8627 17.9917 16.2672C19.0274 14.7575 20.6309 13 22.0001 13C25.9053 13 8.09481 13 12.0001 13C13.3692 13 14.9727 14.7575 16.0085 16.2672Z" fill="black"/>
</svg>
