<svg width="20" height="21" viewBox="0 0 20 21" fill="none" xmlns="http://www.w3.org/2000/svg">
<rect x="2" y="4.5" width="16" height="2" rx="1" fill="black"/>
<rect x="2" y="15.5" width="16" height="2" rx="1" fill="black"/>
<path d="M9.11053 11.3986C9.43796 10.8109 10.5622 10.8109 10.8896 11.3986C11.9198 13.2475 13.5851 15.5 15.0001 15.5C18.9053 15.5 1.09481 15.5 5.00006 15.5C6.41507 15.5 8.08034 13.2475 9.11053 11.3986Z" fill="black"/>
<path d="M9.00847 9.76716C9.41701 10.3627 10.5831 10.3627 10.9917 9.76716C12.0274 8.25746 13.6309 6.5 15.0001 6.5C18.9053 6.5 1.09481 6.5 5.00006 6.5C6.36924 6.5 7.97273 8.25746 9.00847 9.76716Z" fill="black"/>
</svg>
