<svg width="20" height="21" viewBox="0 0 20 21" fill="none" xmlns="http://www.w3.org/2000/svg">
<path d="M10.6831 4.44873C10.5756 4.16621 10.3048 3.979 10.0028 3.97852C9.70084 3.97852 9.42902 4.16475 9.32107 4.4463C8.87468 5.60799 8.11659 6.71132 7.38476 7.77916C6.35437 9.27929 5.38184 10.6968 5.38184 12.1526C5.38184 14.7191 7.45478 16.8072 10.0023 16.8072C12.5489 16.8072 14.6209 14.7191 14.6209 12.1526C14.6209 10.7026 13.6547 9.29631 12.6316 7.80785C11.8939 6.73515 11.1309 5.62598 10.6831 4.44873Z" fill="black"/>
<path d="M16.1482 7.52434L16.1481 7.52439C15.8457 7.84931 15.8633 8.3587 16.1884 8.66125C17.0129 9.42943 17.4667 10.474 17.4667 11.6027C17.4667 12.719 17.02 13.7564 16.2089 14.5237C15.886 14.8289 15.8721 15.3388 16.1772 15.6611C16.3354 15.8284 16.5485 15.9126 16.7617 15.9126C16.96 15.9126 17.1591 15.8397 17.3146 15.6928L17.3146 15.6927C18.4499 14.618 19.075 13.1653 19.075 11.6027C19.075 10.0454 18.4226 8.54436 17.2846 7.48419C16.9605 7.18105 16.451 7.19949 16.1482 7.52434Z" fill="black" stroke="black" stroke-width="0.15"/>
<path d="M2.68634 15.6927L2.6864 15.6928C2.84186 15.8396 3.04041 15.9126 3.23876 15.9126C3.4515 15.9126 3.66504 15.8284 3.82329 15.6611L3.8233 15.6611C4.12833 15.3383 4.11506 14.8289 3.79157 14.5236C2.9804 13.7559 2.53331 12.7189 2.53331 11.6027C2.53331 10.474 2.9876 9.42945 3.81261 8.66126L3.81264 8.66123C4.13756 8.35829 4.15586 7.84937 3.85282 7.52434C3.55038 7.19943 3.041 7.18113 2.71646 7.48413C1.57794 8.54429 0.925 10.0453 0.925 11.6027C0.925 13.1653 1.55106 14.6175 2.68634 15.6927Z" fill="black" stroke="black" stroke-width="0.15"/>
</svg>
