<svg width="32" height="32" viewBox="0 0 32 32" fill="none" xmlns="http://www.w3.org/2000/svg">
<circle cx="16" cy="16" r="16" fill="#FF0018"/>
<path fill-rule="evenodd" clip-rule="evenodd" d="M16.0022 24.4705C12.3611 24.4705 9.41174 21.6241 9.41174 18.1148C9.41174 16.8716 9.79386 15.7217 10.4351 14.7411C10.4549 14.7072 10.4637 14.6627 10.4856 14.6288L14.7306 8.31555C15.4312 7.26721 16.571 7.26721 17.2759 8.31555L21.5209 14.6288C21.5473 14.6712 21.5561 14.722 21.5802 14.7665C22.2105 15.7386 22.5882 16.8822 22.5882 18.1148C22.5882 21.6241 19.6367 24.4705 16.0022 24.4705Z" fill="white"/>
<path d="M12.7059 16.9414C12.2353 18.3532 13.1764 20.8002 15.0588 21.1767" stroke="white" stroke-width="1.41176" stroke-linecap="round"/>
</svg>
